<svg width="459" height="146" viewBox="0 0 459 146" fill="none" xmlns="http://www.w3.org/2000/svg">
<g clip-path="url(#clip0_2999_1265)">
<path d="M31.2684 124.963C30.6657 128.61 29.6366 131.193 28.1665 132.695C26.7112 134.197 24.8295 134.94 22.5362 134.94C19.449 134.94 17.0087 133.657 15.1858 131.091C13.3629 128.525 12.4515 124.119 12.4515 117.89C12.4515 112.285 13.3482 108.284 15.1417 105.887C16.9352 103.507 19.3461 102.308 22.3598 102.308C24.6237 102.308 26.476 103 27.8872 104.385C29.3132 105.769 30.2246 107.829 30.6216 110.563L42.5585 108.099C41.1179 102.46 38.751 98.2568 35.4728 95.5051C32.1798 92.7534 27.7549 91.3691 22.1834 91.3691C15.3769 91.3691 9.98178 93.7832 5.99789 98.6282C1.9993 103.456 0 110.209 0 118.869C0 127.529 1.98459 134.164 5.96848 139.009C9.95238 143.854 15.274 146.268 21.9628 146.268C27.8578 146.268 32.5474 144.681 36.0461 141.473C39.5596 138.283 41.9264 133.539 43.1613 127.276L31.2684 124.963Z" fill="#1D1D1B"/>
<path d="M296.548 73.0892L296.692 146.001H284.817L284.688 74.4765V74.1169V46.9184C284.688 41.1636 284.428 37.4469 283.924 35.7513C283.42 34.0557 282.598 32.754 281.46 31.812C280.321 30.87 278.938 30.4075 277.338 30.4075C275.292 30.4075 273.447 31.0755 271.804 32.4114C270.176 33.7474 269.052 35.5286 268.447 37.7381C267.841 39.9475 267.539 44.0239 267.539 49.9671V74.1169H255.679V20.8161H266.703V28.6434C270.608 22.6316 275.537 19.6172 281.474 19.6172C284.097 19.6172 286.489 20.1824 288.651 21.2957C290.827 22.4261 292.455 23.8477 293.579 25.5947C294.689 27.3246 295.453 29.2942 295.899 31.5037C296.332 33.7131 296.548 36.8817 296.548 40.9923V73.0892Z" fill="url(#paint0_linear_2999_1265)"/>
<path d="M329.869 62.1422C327.752 63.0369 326.12 63.4758 325.003 63.4758C324.194 63.4758 323.518 63.2395 322.959 62.7837C322.401 62.3279 322.033 61.7371 321.886 61.028C321.724 60.319 321.651 57.8206 321.651 53.5327V32.3633H329.913V21.2891H321.651V2.73633L309.493 10.8563V21.2891H303.937V32.3633H309.493V55.2715C309.493 60.184 309.626 63.4421 309.89 65.0627C310.199 67.3417 310.772 69.148 311.581 70.4817C312.404 71.8153 313.698 72.8957 315.447 73.7398C317.197 74.5839 319.166 75.0059 321.342 75.0059C324.9 75.0059 328.09 74.3138 330.898 72.9295L329.869 62.1422Z" fill="#1D1D1B" stroke="#1D1D1B" stroke-width="0.25" stroke-miterlimit="10"/>
<path d="M361.872 62.8344C360.578 64.0161 358.99 64.607 357.094 64.607C354.301 64.607 351.978 63.4759 350.111 61.18C348.244 58.8841 347.274 55.6767 347.186 51.5576H377.499C377.675 40.9054 375.793 33.0049 371.868 27.8391C367.928 22.6903 362.563 20.1074 355.756 20.1074C349.7 20.1074 344.687 22.5721 340.717 27.5015C336.763 32.4309 334.778 39.251 334.778 47.945C334.778 55.2378 336.292 61.2644 339.306 66.0419C343.114 72.0179 349.009 75.0059 356.962 75.0059C361.989 75.0059 366.164 73.6723 369.516 71.0219C372.853 68.3715 375.308 64.5057 376.852 59.4244L364.797 57.0947C364.136 59.7282 363.165 61.6527 361.872 62.8344ZM349.935 34.0515C351.669 31.84 353.845 30.7427 356.491 30.7427C358.961 30.7427 361.048 31.7894 362.768 33.8827C364.503 35.976 365.4 39.0315 365.488 43.0493H347.406C347.377 39.251 348.215 36.263 349.935 34.0515Z" fill="#1D1D1B" stroke="#1D1D1B" stroke-width="0.25" stroke-miterlimit="10"/>
<path d="M425.365 31.8232C424.924 29.6455 424.13 27.7041 422.998 25.9822C421.866 24.2771 420.19 22.8591 417.97 21.7618C415.765 20.6476 413.325 20.1074 410.649 20.1074C404.593 20.1074 399.565 23.0786 395.581 29.004V21.2891H384.335V73.8074H396.448V50.0214C396.448 44.1635 396.757 40.1288 397.374 37.9511C397.992 35.7734 399.124 34.0346 400.8 32.7179C402.461 31.4011 404.343 30.7427 406.43 30.7427C408.077 30.7427 409.473 31.1985 410.634 32.127C411.796 33.0386 412.634 34.3385 413.148 36.0098C413.678 37.6642 413.927 41.3443 413.927 46.9996V73.8074H426.026V41.1755C426.026 37.1239 425.806 34.0009 425.365 31.8232Z" fill="#1D1D1B" stroke="#1D1D1B" stroke-width="0.25" stroke-miterlimit="10"/>
<path d="M457.765 62.1422C455.648 63.0369 454.016 63.4758 452.899 63.4758C452.091 63.4758 451.414 63.2395 450.856 62.7837C450.297 62.3279 449.93 61.7371 449.783 61.028C449.621 60.319 449.547 57.8206 449.547 53.5327V32.3633H457.809V21.2891H449.547V2.73633L437.39 10.8563V21.2891H431.833V32.3633H437.39V55.2715C437.39 60.184 437.522 63.4421 437.787 65.0627C438.095 67.3417 438.669 69.148 439.477 70.4817C440.301 71.8153 441.594 72.8957 443.344 73.7398C445.093 74.5839 447.063 75.0059 449.239 75.0059C452.796 75.0059 455.986 74.3138 458.794 72.9295L457.765 62.1422Z" fill="#1D1D1B" stroke="#1D1D1B" stroke-width="0.25" stroke-miterlimit="10"/>
<path d="M93.7903 105.44C93.3787 103.195 92.5996 101.152 91.4676 99.2954C90.3357 97.4553 88.6451 95.936 86.4106 94.7543C84.1761 93.5726 81.6623 92.9649 78.8691 92.9649C73.4446 92.9649 68.7845 95.5984 64.8741 100.832V74.1758H52.7754V146.682H64.8741V120.363C64.8741 115.957 65.2416 112.615 65.9766 110.353C66.7117 108.091 67.8583 106.402 69.446 105.288C71.019 104.157 72.8124 103.6 74.8264 103.6C76.5758 103.6 78.0312 104.039 79.1925 104.917C80.3539 105.795 81.1771 106.96 81.6329 108.445C82.0886 109.931 82.3238 113.425 82.3238 118.929V146.682H94.4225V115.873C94.4225 111.146 94.2167 107.669 93.7903 105.44Z" fill="#1D1D1B"/>
<path d="M146.018 139.642C145.636 137.447 145.43 134.037 145.43 129.429L145.562 113.206C145.562 107.162 145.033 103.026 143.945 100.764C142.872 98.502 141.02 96.645 138.374 95.1763C135.727 93.7076 131.714 92.9648 126.319 92.9648C120.365 92.9648 115.896 94.1972 112.883 96.6281C109.869 99.0759 107.737 102.824 106.502 107.905L117.484 110.184C118.234 107.736 119.204 106.031 120.409 105.069C121.615 104.09 123.305 103.6 125.452 103.6C128.642 103.6 130.803 104.174 131.949 105.305C133.111 106.453 133.684 108.344 133.684 111.028V112.412C131.494 113.459 127.583 114.607 121.924 115.822C117.734 116.751 114.514 117.831 112.295 119.064C110.075 120.296 108.34 122.068 107.105 124.398C105.87 126.728 105.253 129.378 105.253 132.332C105.253 136.823 106.605 140.537 109.325 143.474C112.03 146.395 115.749 147.863 120.453 147.863C123.129 147.863 125.643 147.289 127.995 146.141C130.347 144.977 132.552 143.255 134.625 140.942C134.713 141.212 134.86 141.752 135.051 142.579C135.522 144.386 135.904 145.753 136.213 146.682H148.194C147.135 144.183 146.4 141.82 146.018 139.642ZM133.684 124.229C133.684 127.555 133.522 129.817 133.199 130.999C132.743 132.822 131.788 134.358 130.318 135.607C128.333 137.245 126.26 138.072 124.07 138.072C122.115 138.072 120.512 137.363 119.248 135.945C117.984 134.527 117.352 132.856 117.352 130.897C117.352 128.939 118.145 127.302 119.718 126.002C120.762 125.225 122.953 124.415 126.319 123.588C129.671 122.761 132.126 122.052 133.684 121.461V124.229Z" fill="#1D1D1B"/>
<path d="M223.481 102.216C222.334 99.1941 220.599 96.8813 218.277 95.3282C215.954 93.7583 213.102 92.9648 209.75 92.9648C207.104 92.9648 204.62 93.657 202.297 95.0413C199.974 96.4255 197.799 98.5188 195.799 101.321C194.418 98.5188 192.653 96.4255 190.492 95.0413C188.346 93.657 185.803 92.9648 182.877 92.9648C177.365 92.9648 172.602 95.7503 168.618 101.321V94.1634H157.46V146.682H169.559V121.157C169.559 116.109 169.882 112.514 170.529 110.336C171.176 108.158 172.249 106.487 173.748 105.339C175.233 104.174 176.909 103.6 178.776 103.6C180.334 103.6 181.554 103.972 182.466 104.697C183.363 105.423 184.039 106.521 184.465 108.006C184.891 109.492 185.112 112.784 185.112 117.899V146.682H197.211V121.461C197.211 116.514 197.549 112.902 198.21 110.606C198.872 108.31 199.945 106.571 201.43 105.39C202.929 104.191 204.517 103.6 206.222 103.6C208.545 103.6 210.265 104.596 211.382 106.571C212.22 108.091 212.632 111.45 212.632 116.666V146.682H224.73V113.104C224.73 108.091 224.319 104.461 223.481 102.216Z" fill="#1D1D1B"/>
<path d="M259.478 135.709C258.185 136.89 256.597 137.481 254.7 137.481C251.922 137.481 249.585 136.333 247.718 134.037C245.851 131.758 244.88 128.551 244.792 124.432H275.12C275.281 113.78 273.414 105.879 269.475 100.713C265.535 95.5477 260.169 92.9648 253.363 92.9648C247.306 92.9648 242.293 95.4295 238.339 100.359C234.369 105.288 232.385 112.108 232.385 120.819C232.385 128.095 233.899 134.139 236.913 138.916C240.735 144.892 246.615 147.863 254.568 147.863C259.596 147.863 263.785 146.547 267.123 143.879C270.474 141.229 272.915 137.363 274.473 132.282L262.404 129.969C261.757 132.603 260.772 134.51 259.478 135.709ZM247.556 106.926C249.276 104.714 251.452 103.6 254.098 103.6C256.567 103.6 258.67 104.647 260.39 106.74C262.11 108.833 263.006 111.889 263.095 115.924H245.013C244.983 112.125 245.836 109.12 247.556 106.926Z" fill="#1D1D1B"/>
<path d="M334.235 135.709C332.941 136.89 331.354 137.481 329.457 137.481C326.679 137.481 324.341 136.333 322.474 134.037C320.607 131.758 319.637 128.551 319.549 124.432H349.877C350.038 113.78 348.157 105.879 344.231 100.713C340.292 95.5477 334.926 92.9648 328.12 92.9648C322.063 92.9648 317.05 95.4295 313.095 100.359C309.126 105.288 307.142 112.108 307.142 120.819C307.142 128.095 308.656 134.139 311.669 138.916C315.492 144.892 321.372 147.863 329.325 147.863C334.353 147.863 338.542 146.547 341.879 143.879C345.231 141.229 347.671 137.363 349.23 132.282L337.16 129.969C336.499 132.603 335.529 134.51 334.235 135.709ZM322.313 106.926C324.033 104.714 326.208 103.6 328.855 103.6C331.324 103.6 333.412 104.647 335.146 106.74C336.866 108.833 337.763 111.889 337.851 115.924H319.77C319.74 112.125 320.578 109.12 322.313 106.926Z" fill="#1D1D1B"/>
<path d="M398.977 100.713C394.552 95.5477 388.878 92.9648 381.969 92.9648C377.485 92.9648 373.427 94.1128 369.796 96.3749C366.165 98.6539 363.357 101.963 361.373 106.267C359.388 110.589 358.403 115.063 358.403 119.671C358.403 125.715 359.388 130.83 361.373 135.033C363.357 139.237 366.253 142.428 370.061 144.605C373.854 146.783 377.852 147.863 382.042 147.863C388.819 147.863 394.449 145.264 398.904 140.03C403.373 134.797 405.607 128.213 405.607 120.279C405.607 112.345 403.402 105.879 398.977 100.713ZM389.951 132.383C387.819 135.152 385.159 136.536 382.013 136.536C378.867 136.536 376.191 135.152 374.045 132.383C371.884 129.615 370.811 125.63 370.811 120.414C370.811 115.198 371.884 111.214 374.045 108.445C376.191 105.677 378.852 104.292 382.013 104.292C385.173 104.292 387.819 105.677 389.951 108.445C392.097 111.214 393.156 115.181 393.156 120.313C393.156 125.445 392.097 129.615 389.951 132.383Z" fill="#1D1D1B"/>
<path d="M457.761 104.697C457.32 102.52 456.526 100.578 455.394 98.8565C454.262 97.1346 452.586 95.7334 450.381 94.6192C448.161 93.5219 445.721 92.9648 443.06 92.9648C437.004 92.9648 431.976 95.936 427.977 101.878V94.1634H416.746V146.682H428.845V122.896C428.845 117.021 429.154 113.003 429.771 110.825C430.388 108.648 431.535 106.909 433.196 105.575C434.857 104.259 436.739 103.6 438.841 103.6C440.473 103.6 441.87 104.073 443.031 104.984C444.192 105.913 445.045 107.213 445.559 108.867C446.074 110.538 446.324 114.202 446.324 119.874V146.682H458.437V114.033C458.437 109.981 458.217 106.875 457.761 104.697Z" fill="#1D1D1B"/>
<path d="M219.878 74.6165L215.233 75.0048H185.038C184.156 75.0048 183.494 74.1439 183.553 73.131C183.773 69.4002 183.553 65.6525 183.553 61.9217C183.553 60.453 183.876 60.0141 185.493 60.031C195.431 60.1154 205.369 60.0816 215.306 60.0647C223.274 60.0647 229.022 54.9328 229.331 47.5724C229.684 39.0642 224.803 33.2569 216.335 32.97C206.266 32.6492 196.181 32.818 186.111 32.8856C184.185 32.9024 183.45 32.5648 183.524 30.5222C183.612 28.1756 183.582 25.8291 183.524 23.4657C183.494 22.284 183.465 21.1023 183.435 19.9206C183.435 19.4479 183.553 18.9752 183.847 18.6545C184.112 18.3506 184.347 18.0299 184.553 17.7091C185.979 15.5483 186.42 13.1174 187.654 13.1342C188.728 13.168 189.124 15.6496 189.668 17.6922C190.036 19.0428 190.462 20.2076 191.197 20.3426C192.021 20.4946 192.829 19.2622 193.652 17.6754C195.049 14.9912 196.49 11.2942 198.195 11.4461C199.841 11.5811 200.503 15.2275 201.635 17.6585C202.149 18.7726 202.781 19.6167 203.649 19.7518C204.707 19.9037 205.663 18.9415 206.589 17.6754C208.162 15.5314 209.647 12.5434 211.323 12.881C212.763 13.1849 213.337 15.7171 214.057 17.7429C214.527 19.0596 215.042 20.1569 215.894 20.2582C216.821 20.3764 217.703 19.2453 218.541 17.8779C219.775 15.8522 220.907 13.2862 221.936 13.5563C222.951 13.8264 222.951 16.6456 223.451 18.7389C223.701 19.7855 224.068 20.6634 224.744 20.9335C225.494 21.2373 226.273 20.6803 227.067 19.9544C228.258 18.8908 229.463 17.4221 230.566 17.7935C231.301 18.0636 232.006 19.1103 232.374 22.0645C232.433 22.6047 232.697 23.0774 233.109 23.3644C239.989 28.3107 244.678 36.1099 245.105 44.6351C245.84 59.6764 234.991 72.6077 219.893 74.6503L219.878 74.6165ZM143.611 74.4477L148.242 74.836C148.242 74.836 148.257 74.836 148.271 74.836H178.29C179.231 74.836 179.995 73.9244 179.937 72.844C179.731 69.1469 179.937 65.433 179.937 61.7529C179.937 60.2842 179.613 59.8453 177.996 59.8621C168.058 59.9465 158.121 59.9128 148.183 59.8959C140.215 59.8959 134.467 54.7639 134.159 47.4036C133.806 38.8954 138.686 33.0881 147.154 32.8011C157.224 32.4804 167.309 32.6492 177.379 32.7167C179.304 32.7336 180.039 32.396 179.966 30.3533C179.878 28.0068 179.907 25.6603 179.966 23.2969C179.995 22.1321 180.025 20.9672 180.054 19.8024C180.069 19.296 179.922 18.7895 179.613 18.435C179.363 18.148 179.143 17.8442 178.937 17.5234C177.511 15.3626 177.07 12.9317 175.835 12.9485C174.762 12.9823 174.365 15.4639 173.821 17.5065C173.454 18.8571 173.027 20.0219 172.292 20.1569C171.469 20.3089 170.66 19.0765 169.837 17.4897C168.441 14.8055 167 11.1085 165.295 11.2604C163.648 11.3954 162.987 15.0418 161.855 17.4728C161.34 18.587 160.708 19.431 159.841 19.5661C158.782 19.718 157.827 18.7558 156.901 17.4897C155.328 15.3457 153.843 12.3577 152.167 12.6953C150.726 12.9992 150.153 15.5314 149.433 17.5572C148.962 18.8739 148.448 19.9712 147.595 20.0725C146.669 20.1907 145.787 19.0596 144.949 17.6922C143.714 15.6665 142.582 13.1005 141.553 13.3706C140.539 13.6407 140.539 16.4599 140.039 18.5532C139.789 19.5998 139.421 20.4777 138.745 20.7478C137.995 21.0516 137.216 20.4946 136.422 19.7687C135.232 18.7051 134.026 17.2364 132.924 17.6078C132.189 17.8779 131.483 18.9246 131.13 21.8282C131.057 22.419 130.748 22.9255 130.307 23.2462C123.471 28.1925 118.826 35.958 118.414 44.4494C117.679 59.4907 128.528 72.422 143.626 74.4646L143.611 74.4477Z" fill="url(#paint1_linear_2999_1265)"/>
<path d="M82.6192 35.1468C83.6171 40.1017 88.9396 45.2429 94.848 42.1628C101.202 38.8637 103.787 30.6061 100.857 23.0927C99.7621 20.281 98.0062 18.1306 95.7982 16.3763C92.8189 14.0023 89.6623 12.1341 86.0624 11.4158C81.7555 10.5587 77.704 11.5015 73.8875 13.8613C69.9583 16.2937 66.614 19.5542 63.8776 23.5862C59.5911 29.8769 59.1976 37.133 62.6794 44.0748C64.6414 47.9986 67.2499 51.2638 70.2485 54.1263C73.6332 57.3601 77.2919 60.1238 81.3856 62.0201C84.2895 63.3706 87.3742 64.127 90.3899 65.0537C94.3644 66.2857 98.3803 67.3698 102.439 68.2005C104.374 68.5973 106.304 68.9597 108.248 69.3024C110.3 69.6609 111.568 72.0554 110.906 74.3159C110.844 74.5377 110.663 74.675 110.462 74.6578C108.243 74.5395 106.03 74.4728 103.808 74.443C94.8823 74.2947 86.0877 72.9462 77.5435 69.6909C74.7705 68.6336 70.4297 66.3768 67.9227 64.6751C63.0961 61.4145 58.8275 57.4053 55.8751 51.7935C53.2732 46.8579 52.1113 41.0182 52.6937 35.2927C53.3906 28.4751 56.2013 22.9365 59.6386 17.8498C63.8951 11.5643 69.0881 6.67747 75.7875 4.02019C77.7783 3.22987 79.8506 2.70632 81.9493 2.49442C86.8687 1.97842 91.6161 2.8106 96.0428 5.59703C101.371 8.94497 105.051 13.9364 106.962 20.5752C108.357 25.4074 108.87 30.3952 108.021 35.5C106.916 42.1259 102.544 47.4302 96.9405 49.4725C91.3373 51.5148 85.3675 50.8103 80.0859 46.8919C76.4858 44.2233 74.4628 40.4156 74.5551 35.3739C74.674 29.7301 78.515 24.3437 83.3198 23.1978C84.5215 22.9156 85.7679 23.0824 86.9245 23.4935C90.9138 24.9513 93.7399 27.897 95.2669 32.4599C95.5505 33.3236 95.6075 34.2096 95.0345 34.9608C94.4361 35.7516 93.6566 35.6431 92.8886 35.3919C91.8677 35.0799 90.9619 34.4841 90.0434 33.908C88.6905 33.0572 87.3732 32.1297 85.8694 31.6393C85.2129 31.4212 84.5449 31.3457 83.8973 31.6532C82.8024 32.1625 82.3119 33.5318 82.6319 35.127L82.6192 35.1468Z" fill="url(#paint2_linear_2999_1265)"/>
</g>
<defs>
<linearGradient id="paint0_linear_2999_1265" x1="276.185" y1="19.6172" x2="276.185" y2="146.001" gradientUnits="userSpaceOnUse">
<stop stop-color="#77BF60"/>
<stop offset="0.49132" stop-color="#5CBBB8"/>
<stop offset="1" stop-color="#A483CA"/>
</linearGradient>
<linearGradient id="paint1_linear_2999_1265" x1="181.759" y1="11.2559" x2="181.759" y2="75.0048" gradientUnits="userSpaceOnUse">
<stop stop-color="#77BF60"/>
<stop offset="0.49132" stop-color="#5CBBB8"/>
<stop offset="1" stop-color="#A483CA"/>
</linearGradient>
<linearGradient id="paint2_linear_2999_1265" x1="76.3767" y1="3.41715" x2="89.5897" y2="78.3515" gradientUnits="userSpaceOnUse">
<stop stop-color="#77BF60"/>
<stop offset="0.49132" stop-color="#5CBBB8"/>
<stop offset="1" stop-color="#A483CA"/>
</linearGradient>
<clipPath id="clip0_2999_1265">
<rect width="459" height="145.856" fill="white"/>
</clipPath>
</defs>
</svg>
