<svg width="500" height="87" viewBox="0 0 500 87" fill="none" xmlns="http://www.w3.org/2000/svg">
<path fill-rule="evenodd" clip-rule="evenodd" d="M209.988 22.2089C210.764 20.22 211.509 18.3109 212.253 16.4017C213.992 11.9439 215.741 7.49108 217.452 3.02484C217.665 2.46999 217.944 2.30713 218.554 2.31263C221.669 2.34379 224.784 2.32758 227.9 2.32758H228.717C228.551 2.65682 228.436 2.9071 228.303 3.14751C224.911 9.28533 221.508 15.4182 218.136 21.5666C217.841 22.1052 217.508 22.2759 216.885 22.2646C214.882 22.2258 212.876 22.2512 210.872 22.2484C210.611 22.2484 210.35 22.2258 209.988 22.2089Z" fill="#EC3C68"/>
<path fill-rule="evenodd" clip-rule="evenodd" d="M14.8084 48.3519C13.9356 48.3442 13.0619 48.3364 12.1898 48.3357V11.8457C13.2753 11.8549 14.3616 11.8584 15.4486 11.8619C18.3602 11.8704 21.3706 11.8796 24.3186 12.0029C27.8473 12.1502 31.0608 13.0319 33.8697 14.6233C37.3523 16.5967 39.6698 19.609 40.7598 23.5763C41.9152 27.7875 41.962 32.0331 40.8966 36.1949C39.3219 42.3548 35.0958 46.1868 28.3358 47.5851C26.0049 48.0672 23.5922 48.2159 21.3342 48.3054C19.1691 48.3907 16.9534 48.371 14.8084 48.3519ZM38.9679 4.84782C34.3523 2.55372 29.0964 1.35416 23.3446 1.28368C18.1713 1.22095 12.9147 1.23223 7.82913 1.2421C5.86627 1.24632 3.90193 1.24985 1.93758 1.24985C1.60598 1.24985 1.27214 1.25196 0.939049 1.28016L0 1.34641V58.8491L0.982916 58.9062C1.174 58.9196 1.35244 58.9309 1.53162 58.9309L6.57037 58.933C8.89458 58.9337 11.218 58.9351 13.5422 58.9351C16.4449 58.9351 19.3475 58.9337 22.2509 58.9288C26.3484 58.9224 30.0013 58.4552 33.4147 57.5037C42.9844 54.8346 49.2975 49.1406 52.1801 40.5802C54.5749 33.4653 54.4916 26.2609 51.9317 19.1664C49.635 12.8007 45.2736 7.98345 38.9679 4.84782Z" fill="#1D1D1B"/>
<path fill-rule="evenodd" clip-rule="evenodd" d="M206.008 28.3177C204.957 23.5753 202.327 20.1599 198.191 18.1668C194.694 16.4815 190.744 15.9533 186.455 16.5983C182.564 17.1825 179.505 18.7244 177.333 21.1904V17.1762H165.719V58.9335H177.364L177.364 57.1839C177.366 54.9382 177.361 52.6933 177.355 50.4476C177.341 45.2952 177.328 39.9672 177.413 34.7308C177.489 30.0331 180.525 26.9444 185.534 26.4673C189.217 26.1161 191.83 27.1837 193.524 29.7281C194.415 31.065 194.81 32.6775 194.805 34.9575C194.795 40.4002 194.797 45.8422 194.798 51.2843L194.799 58.9153H206.509L206.556 58.0059C206.565 57.8548 206.573 57.7218 206.573 57.5896L206.577 51.5788C206.583 45.6114 206.589 39.4404 206.55 33.3701C206.538 31.5897 206.356 29.8897 206.008 28.3177Z" fill="#1D1D1B"/>
<path fill-rule="evenodd" clip-rule="evenodd" d="M248.924 1.23438H237.044V16.7514H231.555V27.0986H237.09V58.9351H248.977V27.0555H258.229V16.7514H248.924V1.23438Z" fill="#1D1D1B"/>
<path d="M470.619 37.9021C470.619 44.5813 475.578 48.2506 481.337 48.2506H500.001V59.4728H481.337C468.783 59.4728 458.57 49.7962 458.57 37.9021C458.57 26.0087 468.783 16.332 481.337 16.332H500.001L499.888 27.7294H481.337C475.898 27.7294 470.619 31.2235 470.619 37.9021Z" fill="#1D1D1B"/>
<path fill-rule="evenodd" clip-rule="evenodd" d="M318.108 27.4466C316.725 28.253 315.203 28.2329 313.584 28.2364C310.477 28.2435 307.371 28.2421 304.265 28.24L302.2 28.2301L302.143 12.8662C303.114 12.8648 304.704 12.8704 305.674 12.8662C308.269 12.8577 310.951 12.8471 313.584 12.8888C317.433 12.9501 320.718 14.2034 321.674 17.5327C322.844 21.6077 321.444 25.4987 318.108 27.4466ZM314.647 1.27198C309.308 1.22189 303.878 1.23318 298.628 1.24235C296.422 1.24729 294.216 1.25152 292.01 1.25152C291.819 1.25152 291.633 1.25928 291.432 1.28468L290.578 1.37216V58.9351L302.2 58.7849V39.3246L303.031 39.3091C304.358 39.2978 305.685 39.3119 307.013 39.3246C309.91 39.3543 312.907 39.3832 315.853 39.1595C321.803 38.7073 327.182 35.8069 330.607 31.2006C334.078 26.5351 335.153 20.687 333.554 15.1551C331.252 7.19266 323.301 1.35382 314.647 1.27198Z" fill="#1D1D1B"/>
<path fill-rule="evenodd" clip-rule="evenodd" d="M373.764 38.0087C373.746 41.237 372.465 44.2045 370.156 46.3652C367.883 48.4919 364.8 49.6608 361.464 49.6608H361.37C354.532 49.6147 349.408 44.5495 349.45 37.8776C349.472 34.553 350.759 31.533 353.075 29.3752C355.251 27.347 358.193 26.234 361.372 26.234C361.414 26.234 361.459 26.234 361.503 26.2347C368.529 26.3027 373.8 31.3644 373.764 38.0087ZM373.011 20.5574C371.879 19.3205 370.543 18.3791 369.017 17.745C361.386 14.5784 353.862 15.2748 347.254 19.7591C339.724 24.8703 336.613 32.2343 338.007 41.6457C339.521 51.8668 348.055 59.4037 358.761 59.9726C359.261 59.9995 359.752 60.0122 360.234 60.0122C363.51 60.0122 366.403 59.3987 369.042 58.1484C370.61 57.4045 371.922 56.4623 373.006 55.2956V59.058H384.789V16.8113H373.011V20.5574Z" fill="#1D1D1B"/>
<path fill-rule="evenodd" clip-rule="evenodd" d="M431.315 28.2937C429.861 22.0962 425.971 18.2611 419.75 16.8949C414.619 15.7678 409.952 16.3349 405.884 18.5827C404.709 19.2323 403.645 20.0594 402.665 21.0879V17.1886H391.031V58.9335H402.673V57.1499C402.674 54.9174 402.668 52.6849 402.663 50.4517C402.65 45.2917 402.636 39.9548 402.723 34.7116C402.799 30.0179 405.841 26.9359 410.861 26.4668C414.539 26.1249 417.155 27.1932 418.844 29.7411C419.977 31.4506 420.119 33.4342 420.116 34.9717C420.106 40.3778 420.107 45.7839 420.109 51.1907L420.11 58.8923H431.823L431.87 57.9945C431.879 57.861 431.885 57.747 431.885 57.633L431.889 51.606C431.896 45.6231 431.902 39.4367 431.862 33.351C431.85 31.4918 431.666 29.79 431.315 28.2937Z" fill="#1D1D1B"/>
<path fill-rule="evenodd" clip-rule="evenodd" d="M439.27 58.9333H451.188V16.8711H439.27V58.9333Z" fill="#1D1D1B"/>
<path fill-rule="evenodd" clip-rule="evenodd" d="M445.286 0.695312H445.258C441.279 0.695312 438.154 3.51618 438.137 7.12757C438.119 10.7573 441.223 13.6171 445.203 13.6375H445.243C447.133 13.6375 448.911 12.9629 450.253 11.7344C451.591 10.5101 452.327 8.88593 452.325 7.16289C452.321 3.60943 449.164 0.708735 445.286 0.695312Z" fill="#EC3C68"/>
<path d="M72.7338 37.9021C72.7338 44.5813 77.6755 48.2506 83.4147 48.2506H107.72V59.4728H83.4147C70.9044 59.4728 60.7266 49.7962 60.7266 37.9021C60.7266 26.0086 70.9044 16.332 83.4147 16.332H107.832L107.72 27.7294H83.4147C77.9943 27.7294 72.7338 31.2235 72.7338 37.9021Z" fill="#1D1D1B"/>
<path d="M146.903 37.9021C146.903 44.5813 141.961 48.2506 136.222 48.2506H111.916V59.4728H136.222C148.732 59.4728 158.91 49.7962 158.91 37.9021C158.91 26.0086 148.732 16.332 136.222 16.332H111.805L111.916 27.7294H136.222C141.642 27.7294 146.903 31.2235 146.903 37.9021Z" fill="#1D1D1B"/>
<path d="M1.13672 86.8487H2.96649V77.9359H1.13672V86.8487Z" fill="#1D1D1B"/>
<path d="M40.3549 86.8487H42.1847V79.3365H45.4501V77.9359H37.0894V79.3365H40.3549V86.8487Z" fill="#1D1D1B"/>
<path d="M124.58 86.8487L122.314 83.9202C123.651 83.4491 124.411 82.456 124.411 81.1063C124.411 79.1328 122.806 77.9359 120.216 77.9359H116.163V86.8487H117.993V84.2512H120.216C120.343 84.2512 120.47 84.2512 120.596 84.2385L122.609 86.8487H124.58ZM122.567 81.1063C122.567 82.2268 121.737 82.8889 120.132 82.8889H117.993V79.3365H120.132C121.737 79.3365 122.567 79.9859 122.567 81.1063Z" fill="#1D1D1B"/>
<path d="M161.013 85.4608V83.0035H165.77V81.6411H161.013V79.3238H166.375V77.9359H159.183V86.8487H166.572V85.4608H161.013Z" fill="#1D1D1B"/>
<path d="M205.856 86.976C207.475 86.976 208.854 86.454 209.769 85.4863L208.586 84.4677C207.869 85.1807 206.982 85.5245 205.954 85.5245C203.914 85.5245 202.436 84.2258 202.436 82.3923C202.436 80.5588 203.914 79.2601 205.954 79.2601C206.982 79.2601 207.869 79.6039 208.586 80.3042L209.769 79.2983C208.854 78.3306 207.475 77.8086 205.87 77.8086C202.844 77.8086 200.592 79.7312 200.592 82.3923C200.592 85.0534 202.844 86.976 205.856 86.976Z" fill="#1D1D1B"/>
<path d="M252.664 86.8487L250.398 83.9202C251.735 83.4491 252.495 82.456 252.495 81.1063C252.495 79.1328 250.89 77.9359 248.3 77.9359H244.247V86.8487H246.077V84.2512H248.3C248.427 84.2512 248.554 84.2512 248.681 84.2385L250.693 86.8487H252.664ZM250.651 81.1063C250.651 82.2268 249.821 82.8889 248.216 82.8889H246.077V79.3365H248.216C249.821 79.3365 250.651 79.9859 250.651 81.1063Z" fill="#1D1D1B"/>
<path d="M291.503 86.976C294.192 86.976 295.81 85.5627 295.81 82.9653V77.9359H294.009V82.9016C294.009 84.7351 293.108 85.5245 291.518 85.5245C289.927 85.5245 289.012 84.7351 289.012 82.9016V77.9359H287.182V82.9653C287.182 85.5627 288.801 86.976 291.503 86.976Z" fill="#1D1D1B"/>
<path d="M331.098 86.8487H332.928V77.9359H331.098V86.8487Z" fill="#1D1D1B"/>
<path d="M370.316 86.8487H372.146V79.3365H375.411V77.9359H367.051V79.3365H370.316V86.8487Z" fill="#1D1D1B"/>
<path d="M409.509 86.8487H411.339V77.9359H409.509V86.8487Z" fill="#1D1D1B"/>
<path d="M453.668 77.9359V83.9711L448.235 77.9359H446.729V86.8487H448.544V80.8135L453.977 86.8487H455.483V77.9359H453.668Z" fill="#1D1D1B"/>
<path d="M497.576 85.0661C496.943 85.3972 496.253 85.5245 495.549 85.5245C493.466 85.5245 491.988 84.2003 491.988 82.3923C491.988 80.5461 493.466 79.2601 495.563 79.2601C496.619 79.2601 497.506 79.5784 498.28 80.2787L499.434 79.2601C498.505 78.3052 497.126 77.8086 495.479 77.8086C492.397 77.8086 490.145 79.7312 490.145 82.3923C490.145 85.0534 492.397 86.976 495.451 86.976C496.844 86.976 498.28 86.594 499.307 85.8428V82.2904H497.576V85.0661Z" fill="#1D1D1B"/>
</svg>
