<svg xmlns="http://www.w3.org/2000/svg" width="90" height="88" viewBox="0 0 90 88" fill="none">
  <path d="M45 87.9067C36.1987 87.9067 27.5951 85.3316 20.2771 80.5071C12.9591 75.6826 7.25548 68.8253 3.88738 60.8024C0.519279 52.7795 -0.361966 43.9514 1.35508 35.4343C3.07212 26.9172 7.31034 19.0938 13.5338 12.9534C19.7572 6.81291 27.6863 2.63121 36.3185 0.937058C44.9506 -0.75709 53.8981 0.112406 62.0294 3.4356C70.1607 6.75879 77.1106 12.3864 82.0004 19.6068C86.8901 26.8272 89.5 35.3161 89.5 44.0001C89.4864 55.6407 84.7936 66.8007 76.4512 75.0319C68.1087 83.2631 56.798 87.8933 45 87.9067ZM45 1.80493C36.5377 1.80493 28.2655 4.28106 21.2295 8.92013C14.1936 13.5592 8.71009 20.1528 5.47249 27.8671C2.23489 35.5813 1.38866 44.0696 3.04082 52.2584C4.69299 60.4472 8.76935 67.9686 14.7543 73.8714C20.7393 79.7742 28.364 83.7932 36.6641 85.42C44.9642 87.0469 53.5669 86.2085 61.3841 83.011C69.2013 79.8135 75.8818 74.4004 80.5807 67.4564C85.2796 60.5125 87.7859 52.3495 87.7825 44.0001C87.7643 32.8118 83.2505 22.0871 75.2307 14.1774C67.2108 6.2677 56.3395 1.81838 45 1.80493Z" fill="#C3DC73"/>
  <path d="M71.2384 31.8317C70.9894 32.2273 70.7073 32.6017 70.395 32.9511L40.4246 62.3733C40.2707 62.6014 40.0618 62.7885 39.8165 62.9179C39.5712 63.0473 39.2972 63.115 39.0188 63.115C38.7405 63.115 38.4664 63.0473 38.2212 62.9179C37.9759 62.7885 37.767 62.6014 37.6131 62.3733C31.9901 56.6796 26.3672 50.9767 20.7442 45.2645C20.532 45.1079 20.3615 44.9032 20.2472 44.6677C20.133 44.4323 20.0783 44.1732 20.088 43.9125C20.0977 43.6519 20.1713 43.3974 20.3027 43.1708C20.4341 42.9441 20.6193 42.7521 20.8426 42.6111L25.0598 38.866C25.2112 38.6789 25.4036 38.5278 25.6227 38.4239C25.8417 38.32 26.0818 38.2661 26.325 38.2661C26.5682 38.2661 26.8082 38.32 27.0273 38.4239C27.2463 38.5278 27.4387 38.6789 27.5901 38.866L37.5568 48.8438C38.5971 49.8803 39.3703 49.8941 40.3683 48.8438L63.6474 26.0551C63.799 25.8241 64.0071 25.6341 64.2527 25.5025C64.4983 25.3709 64.7735 25.302 65.0532 25.302C65.3328 25.302 65.6081 25.3709 65.8536 25.5025C66.0992 25.6341 66.3073 25.8241 66.4589 26.0551C67.7803 27.3542 69.1017 28.6532 70.395 29.9661C70.6935 30.31 70.966 30.6748 71.2103 31.0578L71.2384 31.8317Z" fill="#C3DC73"/>
</svg>