<svg width="542" height="152" viewBox="0 0 542 152" fill="none" xmlns="http://www.w3.org/2000/svg">
<path d="M79.8649 21.8008V101.413C79.8649 106.147 78.731 110.855 76.3455 115.127C76.1982 115.387 76.0509 115.643 75.8988 115.9C72.0406 122.364 65.7184 127.568 57.9874 130.601C53.1869 132.491 47.8464 133.545 42.2162 133.545C26.1898 133.545 12.49 125.006 6.99239 112.959L6.96294 112.896C5.60327 109.906 4.90625 106.726 4.90625 103.517V92.3739H32.3991V100.233C32.3991 102.392 34.4411 104.139 36.9641 104.139C37.9654 104.139 38.7802 103.442 38.7802 102.585V21.8008H79.8649Z" fill="#56BFD9"/>
<path d="M42.2185 137.744C33.4518 137.744 25.0288 135.489 17.8573 131.217C10.8528 127.046 5.51722 121.262 2.42483 114.487L2.39538 114.429C0.805004 110.93 0 107.263 0 103.516V88.1727H33.874V17.5996H84.7758V101.412C84.7758 106.885 83.3915 112.253 80.7753 116.936C80.6133 117.23 80.4415 117.52 80.2697 117.81C75.9158 125.11 68.7248 131.007 60.0317 134.418C54.4261 136.623 48.4328 137.744 42.2136 137.744H42.2185ZM9.81712 96.5732V103.516C9.81712 106.213 10.3963 108.859 11.54 111.375L11.5646 111.43C16.532 122.317 28.5629 129.348 42.2185 129.348C47.0093 129.348 51.6233 128.487 55.938 126.786C62.6381 124.156 68.175 119.616 71.5275 113.992C71.6601 113.769 71.7926 113.547 71.9153 113.32C73.9033 109.758 74.9537 105.642 74.9537 101.416V26.0002H43.6862V102.584C43.6862 105.755 40.6674 108.338 36.9615 108.338C31.7388 108.338 27.4879 104.701 27.4879 100.232V96.5732H9.81712Z" fill="#1D1D1B"/>
<path d="M35.0312 134.985L55.9466 126.782C62.6419 124.156 68.1739 119.612 71.5313 113.988C71.6638 113.765 71.7964 113.542 71.9191 113.316C73.9071 109.754 74.9575 105.637 74.9575 101.412V17.5996H100.168V99.2866C100.168 104.667 98.7787 109.934 96.1477 114.517C95.9858 114.802 95.814 115.088 95.6422 115.37C88.3775 127.223 73.966 134.67 58.0377 134.796L35.0312 134.981V134.985ZM84.7795 26.0002V101.412C84.7795 106.885 83.3953 112.253 80.779 116.936C80.6171 117.23 80.4453 117.52 80.2735 117.81C79.8415 118.532 79.3801 119.246 78.8941 119.939C82.1682 117.633 84.9219 114.773 86.9491 111.467C87.0815 111.253 87.2089 111.035 87.3364 110.817C87.3366 110.817 87.3367 110.817 87.3369 110.816C89.3101 107.376 90.3556 103.386 90.3556 99.2866V26.0002H84.7795Z" fill="#1D1D1B"/>
<path d="M84.7795 26.0002V101.412C84.7795 106.885 83.3953 112.253 80.779 116.936C80.6171 117.23 80.4453 117.52 80.2735 117.81C79.8415 118.532 79.3801 119.246 78.8941 119.939C82.1682 117.633 84.9219 114.773 86.9491 111.467C87.0815 111.253 87.2089 111.035 87.3364 110.817L87.3369 110.816C89.3101 107.376 90.3556 103.386 90.3556 99.2866V26.0002H84.7795Z" fill="#EBB33F"/>
<path d="M115.914 106.819V72.3546H125.052V106.819C125.052 111.818 125.929 115.493 127.684 117.844C129.471 120.194 132.219 121.37 135.927 121.37C140.231 121.37 143.525 119.863 145.81 116.85C148.094 113.805 149.236 109.451 149.236 103.79V72.3546H158.424V127.875H149.236V119.532C147.614 122.744 145.396 125.177 142.582 126.832C139.801 128.488 136.54 129.315 132.799 129.315C127.104 129.315 122.867 127.461 120.086 123.753C117.305 120.012 115.914 114.367 115.914 106.819Z" fill="black"/>
<path d="M213.602 93.4107V127.875H204.415V93.4107C204.415 88.4115 203.538 84.7366 201.783 82.386C200.028 80.0354 197.281 78.8601 193.54 78.8601C189.269 78.8601 185.975 80.3831 183.657 83.4289C181.373 86.4416 180.23 90.7787 180.23 96.44V127.875H171.093V72.2553H180.23V80.5982C181.853 77.42 184.054 75.0197 186.835 73.3975C189.616 71.7421 192.91 70.9144 196.718 70.9144C202.379 70.9144 206.6 72.785 209.381 76.5261C212.195 80.2341 213.602 85.8623 213.602 93.4107Z" fill="black"/>
<path d="M232.281 72.4539H255.671V120.774H273.797V127.875H228.407V120.774H246.533V79.5554H232.281V72.4539ZM246.533 50.8516H255.671V62.3728H246.533V50.8516Z" fill="black"/>
<path d="M276.733 72.2553H286.218L302.358 118.936L318.547 72.2553H328.032L308.267 127.875H296.498L276.733 72.2553Z" fill="black"/>
<path d="M382.566 95.4964V99.9659H342.986V100.264C342.721 107.845 344.161 113.291 347.307 116.602C350.485 119.913 354.954 121.568 360.715 121.568C363.628 121.568 366.674 121.105 369.852 120.178C373.031 119.251 376.424 117.844 380.033 115.957V125.044C376.557 126.468 373.196 127.527 369.952 128.223C366.74 128.951 363.628 129.315 360.616 129.315C351.975 129.315 345.221 126.733 340.354 121.568C335.487 116.37 333.054 109.219 333.054 100.115C333.054 91.2422 335.438 84.1573 340.205 78.8601C344.972 73.563 351.329 70.9144 359.275 70.9144C366.36 70.9144 371.938 73.3147 376.01 78.1152C380.116 82.9157 382.301 88.7095 382.566 95.4964ZM373.428 92.8148C373.031 88.9743 371.624 85.6636 369.207 82.8826C366.823 80.0685 363.38 78.6615 358.877 78.6615C354.474 78.6615 350.849 80.1182 348.002 83.0316C345.155 85.945 343.599 89.2226 343.334 92.8644L373.428 92.8148Z" fill="black"/>
<path d="M437.448 83.7269C435.495 82.2039 433.509 81.0949 431.489 80.3996C429.47 79.7044 427.251 79.3567 424.835 79.3567C419.14 79.3567 414.787 81.1445 411.774 84.7201C408.761 88.2956 407.255 93.4603 407.255 100.214V127.875H398.068V72.2553H407.255V83.1309C408.778 79.1912 411.112 76.1785 414.257 74.0927C417.435 71.9739 421.193 70.9144 425.53 70.9144C427.781 70.9144 429.883 71.1958 431.837 71.7587C433.79 72.3215 435.661 73.1988 437.448 74.3907V83.7269Z" fill="black"/>
<path d="M481.555 74.192V83.1309C478.94 81.608 476.307 80.4658 473.659 79.7044C471.01 78.9429 468.312 78.5622 465.564 78.5622C461.426 78.5622 458.33 79.2409 456.278 80.5982C454.258 81.9225 453.248 83.9586 453.248 86.7065C453.248 89.1895 454.01 91.0435 455.533 92.2685C457.056 93.4934 460.846 94.6853 466.905 95.844L470.58 96.5393C475.116 97.4001 478.542 99.1216 480.86 101.704C483.21 104.286 484.386 107.647 484.386 111.785C484.386 117.281 482.432 121.585 478.526 124.697C474.619 127.776 469.189 129.315 462.237 129.315C459.489 129.315 456.609 129.017 453.596 128.421C450.583 127.859 447.322 126.998 443.813 125.839V116.404C447.223 118.158 450.484 119.482 453.596 120.376C456.708 121.237 459.655 121.668 462.436 121.668C466.475 121.668 469.603 120.856 471.822 119.234C474.04 117.579 475.149 115.278 475.149 112.331C475.149 108.094 471.093 105.164 462.982 103.541L462.585 103.442L459.158 102.747C453.894 101.721 450.054 99.999 447.637 97.5822C445.22 95.1322 444.012 91.805 444.012 87.6004C444.012 82.2702 445.816 78.1649 449.425 75.2846C453.033 72.3711 458.181 70.9144 464.869 70.9144C467.849 70.9144 470.712 71.1958 473.46 71.7587C476.208 72.2884 478.906 73.0995 481.555 74.192Z" fill="black"/>
<path d="M542 95.4964V99.9659H502.42V100.264C502.155 107.845 503.596 113.291 506.741 116.602C509.919 119.913 514.389 121.568 520.149 121.568C523.063 121.568 526.108 121.105 529.287 120.178C532.465 119.251 535.858 117.844 539.467 115.957V125.044C535.991 126.468 532.631 127.527 529.386 128.223C526.175 128.951 523.063 129.315 520.05 129.315C511.409 129.315 504.655 126.733 499.788 121.568C494.922 116.37 492.488 109.219 492.488 100.115C492.488 91.2422 494.872 84.1573 499.639 78.8601C504.407 73.563 510.763 70.9144 518.709 70.9144C525.794 70.9144 531.372 73.3147 535.445 78.1152C539.55 82.9157 541.735 88.7095 542 95.4964ZM532.862 92.8148C532.465 88.9743 531.058 85.6636 528.641 82.8826C526.257 80.0685 522.814 78.6615 518.312 78.6615C513.909 78.6615 510.283 80.1182 507.436 83.0316C504.589 85.945 503.033 89.2226 502.768 92.8644L532.862 92.8148Z" fill="black"/>
</svg>
