<svg width="80" height="32" viewBox="0 0 80 32" fill="none" xmlns="http://www.w3.org/2000/svg">
<path d="M15.9993 29.3333C23.3631 29.3333 29.3327 23.3638 29.3327 16C29.3327 8.63619 23.3631 2.66666 15.9993 2.66666C8.63555 2.66666 2.66602 8.63619 2.66602 16C2.66602 23.3638 8.63555 29.3333 15.9993 29.3333Z" stroke="#2672E4" stroke-width="1.5" stroke-linecap="round" stroke-linejoin="round"/>
<path d="M16 10.6667V21.3333" stroke="#2672E4" stroke-width="1.5" stroke-linecap="round" stroke-linejoin="round"/>
<path d="M10.666 16H21.3327" stroke="#2672E4" stroke-width="1.5" stroke-linecap="round" stroke-linejoin="round"/>
<path d="M51.9141 10.041L47.207 23H45.2832L50.7031 8.78125H51.9434L51.9141 10.041ZM55.8594 23L51.1426 10.041L51.1133 8.78125H52.3535L57.793 23H55.8594ZM55.6152 17.7363V19.2793H47.627V17.7363H55.6152ZM66.084 20.9492V8H67.9004V23H66.2402L66.084 20.9492ZM58.9746 17.834V17.6289C58.9746 16.8216 59.0723 16.0892 59.2676 15.4316C59.4694 14.7676 59.7526 14.1979 60.1172 13.7227C60.4883 13.2474 60.9277 12.8828 61.4355 12.6289C61.9499 12.3685 62.5228 12.2383 63.1543 12.2383C63.8184 12.2383 64.3978 12.3555 64.8926 12.5898C65.3939 12.8177 65.8171 13.153 66.1621 13.5957C66.5137 14.0319 66.7904 14.5592 66.9922 15.1777C67.194 15.7962 67.334 16.4961 67.4121 17.2773V18.1758C67.3405 18.9505 67.2005 19.6471 66.9922 20.2656C66.7904 20.8841 66.5137 21.4115 66.1621 21.8477C65.8171 22.2839 65.3939 22.6191 64.8926 22.8535C64.3913 23.0814 63.8053 23.1953 63.1348 23.1953C62.5163 23.1953 61.9499 23.0618 61.4355 22.7949C60.9277 22.528 60.4883 22.1536 60.1172 21.6719C59.7526 21.1901 59.4694 20.6237 59.2676 19.9727C59.0723 19.3151 58.9746 18.6022 58.9746 17.834ZM60.791 17.6289V17.834C60.791 18.3613 60.8431 18.8561 60.9473 19.3184C61.0579 19.7806 61.2272 20.1875 61.4551 20.5391C61.6829 20.8906 61.9727 21.1673 62.3242 21.3691C62.6758 21.5645 63.0957 21.6621 63.584 21.6621C64.1829 21.6621 64.6745 21.5352 65.0586 21.2812C65.4492 21.0273 65.7617 20.6921 65.9961 20.2754C66.2305 19.8587 66.4128 19.4062 66.543 18.918V16.5645C66.4648 16.2064 66.3509 15.8613 66.2012 15.5293C66.0579 15.1908 65.8691 14.8913 65.6348 14.6309C65.4069 14.3639 65.1237 14.1523 64.7852 13.9961C64.4531 13.8398 64.0592 13.7617 63.6035 13.7617C63.1087 13.7617 62.6823 13.8659 62.3242 14.0742C61.9727 14.276 61.6829 14.556 61.4551 14.9141C61.2272 15.2656 61.0579 15.6758 60.9473 16.1445C60.8431 16.6068 60.791 17.1016 60.791 17.6289ZM77.373 20.9492V8H79.1895V23H77.5293L77.373 20.9492ZM70.2637 17.834V17.6289C70.2637 16.8216 70.3613 16.0892 70.5566 15.4316C70.7585 14.7676 71.0417 14.1979 71.4062 13.7227C71.7773 13.2474 72.2168 12.8828 72.7246 12.6289C73.2389 12.3685 73.8118 12.2383 74.4434 12.2383C75.1074 12.2383 75.6868 12.3555 76.1816 12.5898C76.6829 12.8177 77.1061 13.153 77.4512 13.5957C77.8027 14.0319 78.0794 14.5592 78.2812 15.1777C78.4831 15.7962 78.623 16.4961 78.7012 17.2773V18.1758C78.6296 18.9505 78.4896 19.6471 78.2812 20.2656C78.0794 20.8841 77.8027 21.4115 77.4512 21.8477C77.1061 22.2839 76.6829 22.6191 76.1816 22.8535C75.6803 23.0814 75.0944 23.1953 74.4238 23.1953C73.8053 23.1953 73.2389 23.0618 72.7246 22.7949C72.2168 22.528 71.7773 22.1536 71.4062 21.6719C71.0417 21.1901 70.7585 20.6237 70.5566 19.9727C70.3613 19.3151 70.2637 18.6022 70.2637 17.834ZM72.0801 17.6289V17.834C72.0801 18.3613 72.1322 18.8561 72.2363 19.3184C72.347 19.7806 72.5163 20.1875 72.7441 20.5391C72.972 20.8906 73.2617 21.1673 73.6133 21.3691C73.9648 21.5645 74.3848 21.6621 74.873 21.6621C75.472 21.6621 75.9635 21.5352 76.3477 21.2812C76.7383 21.0273 77.0508 20.6921 77.2852 20.2754C77.5195 19.8587 77.7018 19.4062 77.832 18.918V16.5645C77.7539 16.2064 77.64 15.8613 77.4902 15.5293C77.347 15.1908 77.1582 14.8913 76.9238 14.6309C76.696 14.3639 76.4128 14.1523 76.0742 13.9961C75.7422 13.8398 75.3483 13.7617 74.8926 13.7617C74.3978 13.7617 73.9714 13.8659 73.6133 14.0742C73.2617 14.276 72.972 14.556 72.7441 14.9141C72.5163 15.2656 72.347 15.6758 72.2363 16.1445C72.1322 16.6068 72.0801 17.1016 72.0801 17.6289Z" fill="#2672E4"/>
</svg>
