<svg width="95" height="95" viewBox="0 0 95 95" fill="none" xmlns="http://www.w3.org/2000/svg">
<path d="M47.5 95C38.1054 95 28.9218 92.2142 21.1104 86.9948C13.2991 81.7754 7.2109 74.357 3.61574 65.6775C0.0205786 56.998 -0.920076 47.4473 0.912721 38.2332C2.74552 29.0191 7.26947 20.5554 13.9125 13.9124C20.5555 7.26946 29.0191 2.74552 38.2332 0.912721C47.4473 -0.920076 56.998 0.0205786 65.6774 3.61574C74.3569 7.2109 81.7754 13.2991 86.9948 21.1104C92.2141 28.9218 95 38.1054 95 47.5C94.9854 60.0933 89.9763 72.1667 81.0715 81.0715C72.1666 89.9763 60.0933 94.9854 47.5 95ZM47.5 1.85162C38.4672 1.85162 29.6373 4.5304 22.127 9.54914C14.6168 14.5679 8.76358 21.7011 5.30771 30.0467C1.85185 38.3923 0.948567 47.5753 2.71211 56.4342C4.47566 65.2932 8.82683 73.4302 15.2153 79.8161C21.6037 86.2019 29.7424 90.5498 38.6021 92.3098C47.4618 94.0698 56.6444 93.1628 64.9886 89.7036C73.3328 86.2444 80.4637 80.3883 85.4794 72.8761C90.4951 65.3638 93.1704 56.5328 93.1667 47.5C93.1473 35.3961 88.3292 23.7937 79.7687 15.2367C71.2082 6.67963 59.6039 1.86617 47.5 1.85162Z" fill="#63C761"/>
<path d="M75.5062 34.3356C75.2403 34.7635 74.9392 35.1686 74.6059 35.5466L42.615 67.3768C42.4507 67.6235 42.2277 67.8259 41.9659 67.9659C41.7041 68.1059 41.4116 68.1791 41.1145 68.1791C40.8173 68.1791 40.5248 68.1059 40.263 67.9659C40.0012 67.8259 39.7782 67.6235 39.614 67.3768C33.6119 61.2171 27.6099 55.0474 21.6078 48.8677C21.3813 48.6983 21.1993 48.4768 21.0774 48.2221C20.9554 47.9674 20.8971 47.6871 20.9074 47.4051C20.9177 47.1231 20.9964 46.8478 21.1366 46.6026C21.2769 46.3575 21.4746 46.1497 21.7129 45.9972L26.2144 41.9455C26.376 41.7431 26.5814 41.5796 26.8152 41.4673C27.049 41.3549 27.3053 41.2965 27.5649 41.2965C27.8245 41.2965 28.0807 41.3549 28.3145 41.4673C28.5483 41.5796 28.7537 41.7431 28.9153 41.9455L39.5539 52.74C40.6643 53.8613 41.4896 53.8762 42.555 52.74L67.4034 28.0862C67.5652 27.8363 67.7874 27.6307 68.0495 27.4884C68.3116 27.3461 68.6054 27.2715 68.9039 27.2715C69.2025 27.2715 69.4962 27.3461 69.7584 27.4884C70.0205 27.6307 70.2426 27.8363 70.4044 28.0862C71.8149 29.4916 73.2254 30.897 74.6059 32.3173C74.9245 32.6893 75.2154 33.084 75.4762 33.4984L75.5062 34.3356Z" fill="#63C761"/>
</svg>
