<svg width="66" height="66" viewBox="0 0 66 66" fill="none" xmlns="http://www.w3.org/2000/svg">
<g id="file-text">
<path id="Vector" d="M38.5 5.5H16.5C15.0413 5.5 13.6424 6.07946 12.6109 7.11091C11.5795 8.14236 11 9.54131 11 11V55C11 56.4587 11.5795 57.8576 12.6109 58.8891C13.6424 59.9205 15.0413 60.5 16.5 60.5H49.5C50.9587 60.5 52.3576 59.9205 53.3891 58.8891C54.4205 57.8576 55 56.4587 55 55V22L38.5 5.5Z" stroke="#646464" stroke-width="2.5" stroke-linecap="round" stroke-linejoin="round"/>
<path id="Vector_2" d="M38.5 5.5V22H55" stroke="#646464" stroke-width="2.5" stroke-linecap="round" stroke-linejoin="round"/>
<path id="Vector_3" d="M44 35.75H22" stroke="#646464" stroke-width="2.5" stroke-linecap="round" stroke-linejoin="round"/>
<path id="Vector_4" d="M44 46.75H22" stroke="#646464" stroke-width="2.5" stroke-linecap="round" stroke-linejoin="round"/>
<path id="Vector_5" d="M27.5 24.75H24.75H22" stroke="#646464" stroke-width="2.5" stroke-linecap="round" stroke-linejoin="round"/>
</g>
</svg>
