<svg width="95" height="95" viewBox="0 0 95 95" fill="none" xmlns="http://www.w3.org/2000/svg">
<path d="M47.5 95C38.1054 95 28.9218 92.2142 21.1104 86.9948C13.2991 81.7754 7.2109 74.357 3.61574 65.6775C0.0205786 56.998 -0.920076 47.4473 0.912721 38.2332C2.74552 29.0191 7.26947 20.5554 13.9125 13.9124C20.5555 7.26946 29.0191 2.74552 38.2332 0.912721C47.4473 -0.920076 56.998 0.0205786 65.6774 3.61574C74.3569 7.2109 81.7754 13.2991 86.9948 21.1104C92.2141 28.9218 95 38.1054 95 47.5C94.9854 60.0933 89.9763 72.1667 81.0715 81.0715C72.1666 89.9763 60.0933 94.9854 47.5 95ZM47.5 1.85162C38.4672 1.85162 29.6373 4.5304 22.127 9.54914C14.6168 14.5679 8.76358 21.7011 5.30771 30.0467C1.85185 38.3923 0.948567 47.5753 2.71211 56.4342C4.47566 65.2932 8.82683 73.4302 15.2153 79.8161C21.6037 86.2019 29.7424 90.5498 38.6021 92.3098C47.4618 94.0698 56.6444 93.1628 64.9886 89.7036C73.3328 86.2444 80.4637 80.3883 85.4794 72.8761C90.4951 65.3638 93.1704 56.5328 93.1667 47.5C93.1473 35.3961 88.3292 23.7937 79.7687 15.2367C71.2082 6.67963 59.6039 1.86617 47.5 1.85162Z" fill="#63C761"/>
<path d="M75.5081 34.3359C75.2423 34.7638 74.9412 35.1688 74.6079 35.5469L42.6169 67.377C42.4527 67.6237 42.2297 67.8261 41.9679 67.9661C41.7061 68.1061 41.4136 68.1794 41.1164 68.1794C40.8193 68.1794 40.5268 68.1061 40.265 67.9661C40.0032 67.8261 39.7802 67.6237 39.6159 67.377C33.6139 61.2173 27.6118 55.0476 21.6098 48.868C21.3833 48.6986 21.2013 48.4771 21.0793 48.2224C20.9574 47.9677 20.899 47.6874 20.9094 47.4054C20.9197 47.1234 20.9983 46.848 21.1386 46.6029C21.2788 46.3577 21.4765 46.15 21.7148 45.9974L26.2163 41.9458C26.3779 41.7434 26.5833 41.5799 26.8172 41.4675C27.051 41.3551 27.3072 41.2968 27.5668 41.2968C27.8264 41.2968 28.0827 41.3551 28.3165 41.4675C28.5503 41.5799 28.7557 41.7434 28.9173 41.9458L39.5559 52.7402C40.6663 53.8615 41.4915 53.8765 42.5569 52.7402L67.4054 28.0865C67.5672 27.8365 67.7893 27.631 68.0514 27.4886C68.3136 27.3463 68.6074 27.2717 68.9059 27.2717C69.2044 27.2717 69.4982 27.3463 69.7603 27.4886C70.0224 27.631 70.2446 27.8365 70.4064 28.0865C71.8169 29.4918 73.2274 30.8972 74.6079 32.3175C74.9265 32.6895 75.2174 33.0843 75.4781 33.4986L75.5081 34.3359Z" fill="#63C761"/>
</svg>
